<?xml version="1.0" standalone="no"?>
<!DOCTYPE svg PUBLIC "-//W3C//DTD SVG 20010904//EN"
 "http://www.w3.org/TR/2001/REC-SVG-20010904/DTD/svg10.dtd">
<svg version="1.0" xmlns="http://www.w3.org/2000/svg"
 width="512.000000pt" height="512.000000pt" viewBox="0 0 512.000000 512.000000"
 preserveAspectRatio="xMidYMid meet">

<g transform="translate(0.000000,512.000000) scale(0.100000,-0.100000)"
fill="#0094ff" stroke="none">
<path d="M2570 5093 c-63 -23 -152 -114 -173 -177 -52 -152 17 -313 162 -380
69 -31 179 -28 246 6 107 56 169 155 169 268 0 81 -15 127 -63 188 -55 70
-127 105 -221 109 -51 2 -89 -3 -120 -14z m176 -149 c37 -18 71 -64 80 -112
14 -69 -48 -154 -121 -168 -88 -16 -175 56 -175 146 0 113 113 183 216 134z"/>
<path d="M3563 4891 c-28 -9 -68 -28 -88 -42 -47 -32 -101 -112 -116 -172 -22
-92 5 -210 63 -273 l19 -22 -167 -283 c-92 -156 -168 -285 -169 -287 -2 -2
-31 7 -66 19 -77 26 -218 29 -290 6 l-47 -14 -41 62 c-74 113 -191 202 -333
253 -63 22 -89 26 -193 26 -89 1 -135 -4 -179 -17 -73 -23 -146 -56 -146 -67
0 -5 15 -34 33 -64 21 -38 37 -55 47 -52 8 3 42 15 75 27 204 73 446 -5 569
-184 l39 -57 -40 -43 c-77 -83 -133 -207 -133 -294 l0 -43 74 0 73 0 5 49 c15
155 162 283 328 285 130 1 236 -60 304 -177 21 -37 40 -67 42 -67 3 0 28 13
57 29 189 106 435 72 571 -79 34 -38 86 -128 86 -149 0 -7 -230 -11 -672 -13
-672 -3 -673 -3 -714 -25 -67 -36 -101 -70 -131 -131 l-28 -57 -5 -648 -5
-649 -33 -29 c-46 -41 -108 -41 -154 0 l-33 29 -5 479 -5 478 -30 53 c-81 148
-266 172 -382 50 -57 -59 -63 -88 -63 -285 0 -200 -8 -241 -51 -277 -47 -40
-110 -37 -155 8 l-34 34 0 486 0 486 -145 0 -145 0 -6 26 c-11 43 2 167 21
204 35 69 84 118 148 149 84 41 139 47 218 26 114 -31 102 -34 132 42 15 37
45 92 67 121 22 29 40 56 40 60 0 4 -22 29 -48 55 l-48 47 -31 -32 c-17 -18
-45 -55 -62 -83 l-31 -50 -93 -1 c-197 -4 -340 -96 -426 -274 -34 -72 -36 -80
-36 -182 l0 -108 -41 0 c-152 0 -264 -110 -264 -259 0 -42 7 -80 19 -106 25
-56 101 -122 156 -137 l45 -12 0 -48 0 -49 -27 15 c-67 34 -169 57 -258 59
-111 1 -176 -14 -284 -65 -108 -51 -220 -160 -268 -258 -58 -120 -66 -156 -67
-280 -1 -92 3 -129 21 -185 74 -236 293 -413 533 -432 l77 -6 27 -96 c15 -53
51 -147 81 -209 l55 -114 52 31 c29 17 58 35 65 39 9 5 -2 35 -37 107 -74 151
-101 260 -107 436 -6 155 6 246 48 374 29 88 94 214 150 295 l50 70 134 0 135
0 0 -77 c0 -95 27 -160 88 -215 56 -51 102 -68 181 -68 157 0 254 101 268 280
l6 80 88 0 89 0 0 -336 c0 -234 4 -349 12 -378 16 -55 109 -148 164 -164 61
-18 152 -15 200 7 54 25 111 83 138 140 20 43 21 65 24 389 l4 342 774 0 774
0 44 -59 c52 -72 126 -213 155 -300 111 -326 58 -674 -151 -978 -70 -103 -240
-272 -358 -356 -127 -90 -356 -204 -514 -255 -545 -179 -1163 -144 -1664 93
-207 99 -422 256 -539 395 l-57 68 -43 -31 c-82 -59 -82 -56 -15 -133 32 -38
77 -86 100 -106 l41 -37 -50 -183 c-60 -225 -63 -277 -18 -366 48 -97 128
-151 234 -159 75 -6 129 8 191 50 64 42 101 106 133 225 23 83 30 97 46 95 11
-1 79 -22 150 -47 274 -95 525 -131 845 -123 292 7 535 52 770 142 69 27 95
33 101 23 4 -6 17 -50 29 -96 11 -47 27 -97 36 -113 25 -50 75 -99 128 -127
44 -23 63 -27 136 -27 68 0 93 5 125 22 62 33 123 100 146 163 28 74 22 132
-35 344 l-45 169 97 102 c102 106 199 240 258 358 38 74 104 262 104 294 0 18
9 21 78 26 405 31 669 460 516 837 -74 183 -241 326 -434 371 -118 28 -298 6
-402 -47 l-28 -15 0 49 0 48 43 11 c92 25 170 116 183 215 8 59 -16 142 -56
191 -51 61 -109 89 -201 96 l-80 6 -22 65 c-29 87 -76 158 -150 226 -68 63
-193 129 -264 140 -27 4 -42 11 -40 18 3 6 59 102 124 214 l120 203 94 2 c107
3 152 20 215 84 84 83 113 230 67 334 -46 103 -146 177 -253 186 -53 5 -58 8
-76 41 -26 49 -105 108 -166 127 -67 20 -121 19 -185 -4z m163 -152 c51 -24
82 -69 90 -133 4 -26 10 -49 14 -51 4 -3 29 3 55 11 122 42 229 -27 229 -148
0 -122 -138 -188 -252 -122 -44 26 -46 26 -59 8 -8 -10 -91 -150 -185 -310
l-171 -291 -84 -21 -85 -21 -24 27 c-13 15 -24 30 -24 34 0 4 92 164 205 355
177 300 203 349 189 358 -61 37 -97 71 -110 100 -28 67 -14 134 38 182 49 46
109 54 174 22z m-2438 -1746 l-3 -108 -165 -3 c-182 -3 -228 4 -259 45 -24 29
-28 98 -8 123 36 47 53 50 250 50 l188 0 -3 -107z m2942 92 c88 -45 66 -179
-31 -199 -18 -3 -224 -6 -460 -6 l-429 0 0 -75 0 -75 375 0 375 0 0 -80 0 -80
-755 0 -755 0 0 80 0 80 305 0 305 0 0 75 0 75 -305 0 -305 0 0 66 c0 76 18
116 64 138 47 23 1572 24 1616 1z m-2940 -435 l0 -80 -115 0 -115 0 0 80 0 80
115 0 115 0 0 -80z m688 46 c18 -17 24 -35 25 -72 l2 -49 -87 -3 -88 -3 0 48
c0 100 82 144 148 79z m-1243 -148 c39 -10 109 -41 132 -60 8 -7 1 -25 -28
-66 -22 -31 -43 -57 -47 -56 -4 0 -25 9 -47 20 -60 29 -204 27 -266 -4 -63
-31 -117 -86 -148 -152 -34 -72 -36 -181 -4 -251 44 -98 141 -171 245 -185
l48 -7 0 -73 0 -74 -33 0 c-18 0 -62 8 -99 18 -210 59 -355 269 -335 486 27
286 299 475 582 404z m3917 -9 c211 -61 352 -299 308 -521 -33 -173 -170 -320
-335 -363 -32 -8 -73 -15 -90 -15 l-30 0 3 74 3 74 42 6 c101 16 197 90 240
185 32 70 30 179 -4 251 -31 66 -85 121 -148 152 -66 33 -206 33 -270 1 -25
-12 -45 -21 -46 -20 -1 1 -18 26 -38 55 -20 28 -37 57 -37 63 0 17 123 69 186
78 74 10 130 5 216 -20z m-3962 -294 c17 -9 30 -19 30 -23 0 -5 -13 -44 -29
-88 -16 -43 -34 -105 -41 -136 -13 -55 -15 -58 -44 -58 -84 1 -162 92 -153
179 12 109 139 176 237 126z m3900 -7 c77 -53 98 -130 58 -208 -26 -52 -87
-92 -132 -88 -28 3 -30 7 -53 92 -13 48 -32 109 -43 133 -25 58 -25 59 8 77
42 24 123 20 162 -6z m-3292 -1667 c31 -21 83 -53 114 -71 32 -17 60 -35 63
-39 2 -4 -9 -57 -26 -117 -24 -88 -37 -115 -63 -143 -85 -85 -236 -25 -236 94
0 46 70 315 82 315 5 0 35 -17 66 -39z m2636 -111 c41 -156 43 -183 16 -228
-56 -92 -197 -95 -243 -5 -12 23 -67 209 -67 226 0 3 26 20 58 38 31 18 86 52
122 76 35 23 67 39 71 35 3 -4 23 -68 43 -142z"/>
<path d="M875 4640 c-194 -75 -251 -334 -107 -483 61 -64 124 -91 212 -91 97
-1 163 28 225 96 58 64 79 129 73 222 -6 88 -30 138 -98 199 -85 76 -199 97
-305 57z m183 -150 c71 -44 95 -144 50 -210 -85 -124 -271 -65 -271 87 0 107
129 179 221 123z"/>
<path d="M1810 3315 l0 -75 75 0 75 0 0 75 0 75 -75 0 -75 0 0 -75z"/>
<path d="M3690 1810 l0 -70 -75 0 -75 0 0 -75 0 -75 75 0 75 0 0 70 0 70 75 0
75 0 0 75 0 75 -75 0 -75 0 0 -70z"/>
<path d="M3744 1119 c-150 -152 -406 -293 -651 -360 -43 -12 -79 -22 -81 -24
-1 -1 5 -34 15 -73 19 -83 2 -81 178 -25 142 45 311 125 433 206 98 65 214
162 253 212 l22 26 -39 41 c-63 64 -64 64 -130 -3z"/>
</g>
</svg>
