<?xml version="1.0" standalone="no"?>
<!DOCTYPE svg PUBLIC "-//W3C//DTD SVG 20010904//EN"
 "http://www.w3.org/TR/2001/REC-SVG-20010904/DTD/svg10.dtd">
<svg version="1.0" xmlns="http://www.w3.org/2000/svg"
 width="512.000000pt" height="512.000000pt" viewBox="0 0 512.000000 512.000000"
 preserveAspectRatio="xMidYMid meet">

<g transform="translate(0.000000,512.000000) scale(0.100000,-0.100000)"
fill="#0e0f12" stroke="none">
<path d="M2241 5049 c-262 -29 -442 -124 -510 -269 -35 -74 -36 -196 -2 -283
94 -242 410 -514 856 -739 99 -49 181 -95 183 -102 1 -6 -155 -492 -348 -1080
-192 -587 -350 -1070 -350 -1071 0 -6 131 -47 136 -43 2 3 99 295 215 649 116
354 214 648 219 653 10 10 270 -75 270 -89 0 -13 -787 -2415 -794 -2422 -2 -3
-65 15 -138 39 -99 34 -132 49 -130 60 1 9 69 221 151 471 82 251 152 465 156
476 5 16 -4 22 -60 41 -37 12 -69 20 -71 17 -9 -9 -366 -1108 -362 -1113 3 -2
127 -44 277 -93 178 -58 274 -85 276 -77 2 6 250 762 551 1681 301 919 548
1675 551 1681 2 5 -22 18 -54 28 -32 10 -63 21 -69 23 -8 3 -35 -65 -74 -181
-34 -102 -65 -186 -68 -186 -7 0 -266 81 -269 84 -4 4 238 741 246 749 10 11
271 -74 271 -87 0 -6 -16 -60 -36 -119 -20 -60 -34 -110 -33 -111 7 -5 132
-46 135 -43 4 4 123 371 121 373 -9 7 -527 174 -540 174 -12 0 -29 -41 -68
-165 -29 -91 -57 -165 -63 -165 -21 0 -302 147 -401 209 -173 108 -256 173
-365 281 -150 150 -206 252 -198 362 6 78 41 121 139 171 120 61 188 72 454
71 202 -1 248 -4 377 -27 667 -119 1343 -429 1683 -771 185 -187 235 -330 159
-453 -31 -51 -105 -113 -132 -113 -12 0 -47 57 -111 175 -81 151 -96 173 -106
158 -6 -10 -54 -95 -105 -190 l-93 -172 -188 -103 c-103 -57 -185 -106 -181
-110 4 -4 88 -51 187 -105 l180 -99 101 -183 c55 -101 104 -183 109 -183 5 0
54 82 109 183 l101 183 179 97 c98 53 182 101 187 106 5 5 -42 36 -109 72 -64
35 -119 66 -121 67 -2 2 19 26 47 53 102 102 144 213 123 332 -23 124 -86 232
-216 368 -375 392 -1129 736 -1840 840 -163 24 -424 34 -544 20z m2139 -1562
c45 -81 46 -82 139 -134 l93 -51 -93 -51 -94 -50 -48 -91 c-27 -49 -50 -90
-52 -90 -2 0 -26 42 -53 93 l-51 92 -85 45 c-47 25 -86 48 -86 52 0 4 24 20
52 34 108 55 124 69 173 159 26 48 50 84 53 80 3 -3 27 -43 52 -88z m-1500
-468 c69 -23 127 -43 128 -45 7 -5 -42 -144 -51 -144 -28 0 -267 84 -267 94 0
27 43 136 53 136 7 0 68 -19 137 -41z"/>
<path d="M483 4572 l-102 -187 -185 -100 c-102 -55 -186 -103 -186 -106 0 -4
69 -44 153 -90 235 -127 209 -103 321 -308 55 -99 103 -181 107 -181 4 0 44
69 90 153 126 234 102 209 312 322 102 55 183 103 179 106 -4 4 -90 52 -192
108 l-185 101 -100 185 c-54 102 -102 185 -105 185 -3 0 -51 -84 -107 -188z
m278 -330 c126 -66 125 -60 21 -117 l-91 -49 -48 -88 c-26 -48 -50 -88 -53
-88 -3 0 -26 40 -52 88 l-48 89 -90 48 c-49 27 -86 52 -82 56 4 4 43 28 87 52
84 46 83 45 168 198 l18 33 50 -92 c49 -90 52 -93 120 -130z"/>
<path d="M1190 3545 l0 -75 70 0 70 0 0 75 0 75 -70 0 -70 0 0 -75z"/>
<path d="M3670 2485 l0 -75 70 0 70 0 0 75 0 75 -70 0 -70 0 0 -75z"/>
<path d="M1630 2235 l0 -75 70 0 70 0 0 75 0 75 -70 0 -70 0 0 -75z"/>
<path d="M4305 1871 l-120 -220 -222 -122 c-123 -67 -223 -123 -223 -124 0 -2
89 -52 198 -111 108 -59 209 -116 223 -126 17 -11 71 -98 144 -233 64 -118
121 -213 125 -210 4 3 61 102 125 220 l117 214 224 122 224 122 -48 27 c-26
15 -127 70 -224 124 l-177 97 -111 203 c-61 112 -116 211 -123 220 -11 15 -28
-10 -132 -203z m192 -205 l67 -124 123 -67 c68 -37 123 -68 123 -70 0 -2 -55
-34 -123 -71 l-123 -67 -59 -109 c-32 -60 -64 -116 -69 -124 -9 -12 -25 11
-79 110 l-68 125 -125 67 c-68 37 -123 68 -122 69 2 1 58 32 125 69 l123 67
67 124 c38 69 69 125 70 125 1 0 32 -56 70 -124z"/>
</g>
</svg>
