<?xml version="1.0" standalone="no"?>
<!DOCTYPE svg PUBLIC "-//W3C//DTD SVG 20010904//EN"
 "http://www.w3.org/TR/2001/REC-SVG-20010904/DTD/svg10.dtd">
<svg version="1.0" xmlns="http://www.w3.org/2000/svg"
 width="200.000000pt" height="185.000000pt" viewBox="0 0 200.000000 185.000000"
 preserveAspectRatio="xMidYMid meet">

<g transform="translate(0.000000,185.000000) scale(0.100000,-0.100000)"
fill="#0094ff" stroke="none">
<path d="M640 1740 c-8 -5 -70 -28 -136 -50 -70 -24 -130 -50 -140 -62 -19
-20 -19 -21 1 -15 11 3 49 9 84 12 86 10 120 20 148 47 12 12 23 17 23 11 0
-14 -46 -63 -60 -63 -19 0 -10 -31 21 -75 27 -37 30 -49 25 -80 -6 -31 -2 -41
27 -78 22 -27 37 -58 41 -87 4 -25 16 -55 28 -67 l21 -22 -57 -86 c-54 -80
-57 -87 -51 -127 4 -22 18 -52 31 -65 21 -21 31 -23 133 -23 114 0 196 12 244
36 15 8 27 10 27 5 0 -24 -93 -53 -198 -62 -115 -10 -174 -6 -210 17 -22 14
-23 13 -39 -23 -11 -25 -18 -75 -20 -143 -6 -183 -5 -205 11 -244 l16 -39 88
7 c94 7 264 34 375 60 103 24 104 17 2 -10 -126 -34 -308 -71 -387 -79 -71 -7
-94 -22 -83 -55 6 -18 15 -20 118 -21 136 -2 128 -4 -83 -25 -267 -27 -299
-27 -366 -10 -65 17 -130 21 -160 9 -10 -4 26 -15 92 -29 581 -124 734 -143
893 -109 100 21 128 35 254 123 62 44 148 99 192 123 72 39 276 186 333 239
12 12 20 25 17 30 -7 11 -83 -25 -215 -101 -86 -49 -306 -119 -570 -184 -160
-38 -153 -28 10 15 80 21 182 53 227 70 81 31 82 32 72 58 -6 15 -17 34 -24
42 -9 10 -14 37 -14 70 1 44 -9 79 -50 180 -28 69 -51 118 -51 109 0 -23 -62
-78 -101 -89 -28 -7 -31 -7 -15 3 68 44 110 106 108 161 -2 65 -24 127 -48
136 -13 5 -37 31 -54 57 -16 27 -43 67 -61 89 l-32 41 -73 -33 c-103 -48 -113
-42 -20 11 44 25 81 47 83 49 7 7 -18 49 -53 88 -32 36 -33 36 -51 16 -21 -23
-45 -37 -84 -48 -40 -12 -36 -6 14 23 23 14 52 36 64 49 20 21 20 26 8 55 -10
22 -30 40 -67 60 -63 32 -116 53 -140 53 -10 0 -33 14 -51 30 -38 33 -44 35
-67 20z m327 -1346 c-3 -3 -12 -4 -19 -1 -8 3 -5 6 6 6 11 1 17 -2 13 -5z"/>
<path d="M1690 519 c-69 -50 -155 -109 -192 -130 -38 -22 -68 -41 -68 -43 0
-2 42 13 93 34 149 59 199 97 290 218 5 6 8 12 6 11 -2 0 -60 -41 -129 -90z"/>
<path d="M116 292 c-31 -50 153 -170 289 -189 24 -3 92 3 161 15 65 12 171 26
234 33 l115 13 -158 17 c-133 15 -572 96 -620 115 -8 3 -18 1 -21 -4z"/>
</g>
</svg>
