<?xml version="1.0" standalone="no"?>
<!DOCTYPE svg PUBLIC "-//W3C//DTD SVG 20010904//EN"
 "http://www.w3.org/TR/2001/REC-SVG-20010904/DTD/svg10.dtd">
<svg version="1.0" xmlns="http://www.w3.org/2000/svg"
 width="512.000000pt" height="512.000000pt" viewBox="0 0 512.000000 512.000000"
 preserveAspectRatio="xMidYMid meet">

<g transform="translate(0.000000,512.000000) scale(0.100000,-0.100000)"
fill="#0094ff" stroke="none">
<path d="M2824 5101 c-39 -23 -58 -73 -45 -116 5 -17 37 -88 72 -159 l64 -130
0 -110 0 -111 -49 -102 -49 -103 -135 0 c-154 0 -191 -11 -216 -65 -9 -18 -16
-38 -16 -45 0 -7 7 -27 16 -45 25 -52 63 -65 199 -65 l118 0 -5 -52 c-8 -79 8
-181 41 -258 20 -49 25 -70 16 -70 -7 0 -49 -18 -93 -40 -93 -47 -182 -129
-223 -206 -47 -85 -456 -1087 -468 -1142 -15 -73 -14 -167 4 -234 7 -30 88
-233 178 -451 l164 -396 -326 -297 c-179 -164 -331 -307 -338 -318 -23 -39
-16 -95 16 -127 l29 -29 200 0 199 0 5 -78 c5 -93 30 -152 91 -212 51 -51 96
-75 167 -88 69 -13 142 -1 206 31 36 19 169 146 486 464 494 495 493 493 492
629 -1 128 -17 150 -321 455 -210 211 -264 271 -259 286 36 95 192 463 196
463 4 0 78 -147 165 -326 109 -222 168 -333 188 -350 41 -34 88 -32 150 8 l50
32 21 -29 c48 -67 91 -106 144 -132 80 -39 192 -40 272 -2 115 55 184 160 184
284 0 39 -5 87 -13 108 -7 21 -226 357 -487 747 -394 589 -472 711 -457 716
54 17 164 79 205 114 61 53 121 143 149 227 18 53 24 90 24 170 l0 103 113 0
c130 0 173 13 196 59 20 38 20 64 0 102 -24 48 -65 59 -213 59 l-129 0 -77
147 c-96 185 -155 270 -258 372 -132 131 -249 204 -467 291 -114 45 -132 48
-176 21z"/>
<path d="M34 2526 l-34 -34 0 -231 0 -231 231 0 231 0 34 -34 c46 -46 48 -104
5 -147 l-29 -29 -236 0 -236 0 0 -215 0 -215 215 0 c232 0 267 -6 299 -51 21
-30 21 -88 0 -118 -32 -45 -67 -51 -299 -51 l-215 0 0 -231 0 -231 34 -34 c24
-24 43 -34 65 -34 21 0 244 106 671 320 l640 320 161 0 c217 0 239 13 239 145
l0 65 115 0 c63 0 115 3 115 8 0 4 -19 53 -42 110 l-42 102 -73 0 -73 0 0 65
c0 132 -22 145 -239 145 l-161 0 -640 320 c-427 214 -650 320 -671 320 -22 0
-41 -10 -65 -34z"/>
<path d="M4586 1663 c-11 -26 -39 -75 -63 -110 l-43 -63 270 0 c211 0 278 3
305 14 35 15 65 59 65 96 0 37 -30 81 -65 96 -26 11 -85 14 -242 14 l-208 0
-19 -47z"/>
</g>
</svg>
